<?xml version="1.0" standalone="no"?><!DOCTYPE svg PUBLIC "-//W3C//DTD SVG 1.1//EN" "http://www.w3.org/Graphics/SVG/1.1/DTD/svg11.dtd"><svg xmlns:xlink="http://www.w3.org/1999/xlink" version="1.1" style="font-family:'lucida grande', 'lucida sans unicode', arial, helvetica, sans-serif;font-size:12px;" xmlns="http://www.w3.org/2000/svg" width="600" height="400"><desc>Created with Highcharts 4.2.0</desc><defs><clipPath id="highcharts-4"><rect x="0" y="0" width="580" height="332"></rect></clipPath></defs><g class="highcharts-series-group" ><g class="highcharts-series highcharts-series-0"  transform="translate(10,10) scale(1 1)"><path fill="#50B432" d="M 289.9693471828439 21.50000312157877 A 150.5 150.5 0 1 1 290.11984716996534 322.4999522812411 L 290 172 A 0 0 0 1 0 290 172 Z" stroke="#FFFFFF" stroke-width="1" stroke-linejoin="round" transform="translate(0,0)"></path><path fill="#ED561B" d="M 289.9693471828439 322.49999687842126 A 150.5 150.5 0 0 1 168.1623880074542 83.64929935787796 L 290 172 A 0 0 0 0 0 290 172 Z" stroke="#FFFFFF" stroke-width="1" stroke-linejoin="round" transform="translate(0,0)"></path><path fill="#DDDF00" d="M 168.25079961217213 83.52750594153835 A 150.5 150.5 0 0 1 289.7909585193202 21.500145177281468 L 290 172 A 0 0 0 0 0 290 172 Z" stroke="#FFFFFF" stroke-width="1" stroke-linejoin="round" transform="translate(0,0)"></path></g><g class="highcharts-markers highcharts-series-0"  transform="translate(10,10) scale(1 1)"></g></g><g class="highcharts-data-labels highcharts-series-0"  visibility="visible" transform="translate(10,10) scale(1 1)" opacity="1"><path fill="none" d="M 475.5 171.5 C 470.5 171.5 462.5 171.5 451.5 171.5 L 440.5 171.5" stroke="#50B432" stroke-width="1"></path><path fill="none" d="M 124.17332238399959 253.4452852029882 C 129.1733223839996 253.4452852029882 136.30137457750655 249.81336120507183 146.1024463435786 244.8194657079368 L 155.90351810965066 239.8255702108018" stroke="#ED561B" stroke-width="1"></path><path fill="none" d="M 203.0547147970118 10.67332238399963 C 208.0547147970118 10.67332238399963 211.68663879492817 17.80137457750657 216.6805342920632 27.602446343578617 L 221.6744297891982 37.40351810965066" stroke="#DDDF00" stroke-width="1"></path><g  style="cursor:pointer;" transform="translate(481,162)"><text x="5"  style="font-size: 10px; font-weight: bold; font-family: 'arial',sans-serif; color: rgb(0, 0, 0); fill: rgb(0, 0, 0); text-rendering: geometricprecision; text-shadow: 0px 0px 6px rgb(255, 255, 255), 0px 0px 3px rgb(255, 255, 255);" y="15"><tspan>Pancakes</tspan></text></g><g  style="cursor:pointer;" transform="translate(74,243)"><text x="5"  style="font-size: 10px; font-weight: bold; font-family: 'arial',sans-serif; color: rgb(0, 0, 0); fill: rgb(0, 0, 0); text-rendering: geometricprecision; text-shadow: 0px 0px 6px rgb(255, 255, 255), 0px 0px 3px rgb(255, 255, 255);" y="15"><tspan>Waffles</tspan></text></g><g  style="cursor:pointer;" transform="translate(114,1)"><text x="5"  style="font-size: 10px; font-weight: bold; font-family: 'arial',sans-serif; color: rgb(0, 0, 0); fill: rgb(0, 0, 0); text-rendering: geometricprecision; text-shadow: 0px 0px 6px rgb(255, 255, 255), 0px 0px 3px rgb(255, 255, 255);" y="15"><tspan>Eggs and Toast</tspan></text></g></g><g class="highcharts-legend"  transform="translate(148,354)"><g ><g><g class="highcharts-legend-item"  transform="translate(8,3)"><text x="21" style="color:#333;font-size:9pt;font-weight:normal;cursor:pointer;font-family:'lucida grande','lucida sans unicode',arial,helvetica,sans-serif;text-transform:none;fill:#333;" text-anchor="start"  y="15">Pancakes</text><rect x="0" y="4" width="16" height="12"  fill="#50B432"></rect></g><g class="highcharts-legend-item"  transform="translate(102.31666564941406,3)"><text x="21" y="15" style="color:#333;font-size:9pt;font-weight:normal;cursor:pointer;font-family:'lucida grande','lucida sans unicode',arial,helvetica,sans-serif;text-transform:none;fill:#333;" text-anchor="start" >Waffles</text><rect x="0" y="4" width="16" height="12"  fill="#ED561B"></rect></g><g class="highcharts-legend-item"  transform="translate(185.31666564941406,3)"><text x="21" y="15" style="color:#333;font-size:9pt;font-weight:normal;cursor:pointer;font-family:'lucida grande','lucida sans unicode',arial,helvetica,sans-serif;text-transform:none;fill:#333;" text-anchor="start" ><tspan>Eggs and Toast</tspan></text><rect x="0" y="4" width="16" height="12"  fill="#DDDF00"></rect></g></g></g></g><g class="highcharts-tooltip"  style="cursor:default;padding:0;pointer-events:none;white-space:nowrap;" transform="translate(0,-9999)"><path fill="none" d="M 3.5 0.5 L 13.5 0.5 C 16.5 0.5 16.5 0.5 16.5 3.5 L 16.5 13.5 C 16.5 16.5 16.5 16.5 13.5 16.5 L 3.5 16.5 C 0.5 16.5 0.5 16.5 0.5 13.5 L 0.5 3.5 C 0.5 0.5 0.5 0.5 3.5 0.5"  stroke="black" stroke-opacity="0.049999999999999996" stroke-width="5" transform="translate(1, 1)"></path><path fill="none" d="M 3.5 0.5 L 13.5 0.5 C 16.5 0.5 16.5 0.5 16.5 3.5 L 16.5 13.5 C 16.5 16.5 16.5 16.5 13.5 16.5 L 3.5 16.5 C 0.5 16.5 0.5 16.5 0.5 13.5 L 0.5 3.5 C 0.5 0.5 0.5 0.5 3.5 0.5"  stroke="black" stroke-opacity="0.09999999999999999" stroke-width="3" transform="translate(1, 1)"></path><path fill="none" d="M 3.5 0.5 L 13.5 0.5 C 16.5 0.5 16.5 0.5 16.5 3.5 L 16.5 13.5 C 16.5 16.5 16.5 16.5 13.5 16.5 L 3.5 16.5 C 0.5 16.5 0.5 16.5 0.5 13.5 L 0.5 3.5 C 0.5 0.5 0.5 0.5 3.5 0.5"  stroke="black" stroke-opacity="0.15" stroke-width="1" transform="translate(1, 1)"></path><path fill="rgb(249, 249, 249)" fill-opacity=" .85" d="M 3.5 0.5 L 13.5 0.5 C 16.5 0.5 16.5 0.5 16.5 3.5 L 16.5 13.5 C 16.5 16.5 16.5 16.5 13.5 16.5 L 3.5 16.5 C 0.5 16.5 0.5 16.5 0.5 13.5 L 0.5 3.5 C 0.5 0.5 0.5 0.5 3.5 0.5"></path><text x="8"  style="font-size:12px;color:#000000;fill:#000000;" y="20"></text></g><text x="590" text-anchor="end"  style="cursor:pointer;color:#909090;font-size:9px;fill:#909090;" y="395">meta-chart.com</text></svg>