<?xml version="1.0" standalone="no"?><!DOCTYPE svg PUBLIC "-//W3C//DTD SVG 1.1//EN" "http://www.w3.org/Graphics/SVG/1.1/DTD/svg11.dtd"><svg xmlns:xlink="http://www.w3.org/1999/xlink" version="1.1" style="font-family:'lucida grande', 'lucida sans unicode', arial, helvetica, sans-serif;font-size:12px;" xmlns="http://www.w3.org/2000/svg" width="600" height="400"><desc>Created with Highcharts 4.2.0</desc><defs><clipPath id="highcharts-5"><rect x="0" y="0" width="580" height="304"></rect></clipPath></defs><g class="highcharts-series-group" ><g class="highcharts-series highcharts-series-0"  transform="translate(10,38) scale(1 1)"><path fill="#50B432" d="M 289.97403166652884 39.50000264452686 A 127.5 127.5 0 1 1 290.1015316556185 294.4999595738089 L 290 167 A 0 0 0 1 0 290 167 Z" stroke="#FFFFFF" stroke-width="1" stroke-linejoin="round" transform="translate(0,0)"></path><path fill="#ED561B" d="M 289.97403166652884 294.49999735547317 A 127.5 127.5 0 0 1 168.71070309816247 127.69152181706966 L 290 167 A 0 0 0 0 0 290 167 Z" stroke="#FFFFFF" stroke-width="1" stroke-linejoin="round" transform="translate(0,0)"></path><path fill="#DDDF00" d="M 168.7500722144374 127.57025219462017 A 127.5 127.5 0 0 1 250.45124816257203 45.78883620680175 L 290 167 A 0 0 0 0 0 290 167 Z" stroke="#FFFFFF" stroke-width="1" stroke-linejoin="round" transform="translate(0,0)"></path><path fill="#24CBE5" d="M 250.57247908053768 45.7493480671326 A 127.5 127.5 0 0 1 289.82290505789587 39.50012299072017 L 290 167 A 0 0 0 0 0 290 167 Z" stroke="#FFFFFF" stroke-width="1" stroke-linejoin="round" transform="translate(0,0)"></path></g><g class="highcharts-markers highcharts-series-0"  transform="translate(10,38) scale(1 1)"></g></g><text x="300" text-anchor="middle" class="highcharts-title"  style="color:#000000;font-size:10px;font-family:'arial', sans-serif;fill:#000000;width:536px;" y="17"><tspan>Poll Results</tspan></text><g class="highcharts-data-labels highcharts-series-0"  visibility="visible" transform="translate(10,38) scale(1 1)" opacity="1"><path fill="none" d="M 452.5 166.5 C 447.5 166.5 439.5 166.5 428.5 166.5 L 417.5 166.5" stroke="#50B432" stroke-width="1"></path><path fill="none" d="M 157.57982338594582 259.07617723606455 C 162.57982338594582 259.07617723606455 169.0519593409454 254.37389521772474 177.9511462790698 247.90825744250753 L 186.85033321719422 241.44261966729033" stroke="#ED561B" stroke-width="1"></path><path fill="none" d="M 173.63068196311878 55.130681963118775 C 178.63068196311878 55.130681963118775 184.28753621261112 60.787536212611144 192.06571080566314 68.56571080566317 L 199.84388539871517 76.3438853987152" stroke="#DDDF00" stroke-width="1"></path><path fill="none" d="M 260.3615717561636 10.939086356265815 C 265.3615717561636 10.939086356265815 266.61304747648546 18.84059308102691 268.333826591928 29.705164827573427 L 270.05460570737057 40.56973657411994" stroke="#24CBE5" stroke-width="1"></path><g  style="cursor:pointer;" transform="translate(458,157)"><text x="5"  style="font-size: 10px; font-weight: bold; font-family: 'arial',sans-serif; color: rgb(0, 0, 0); fill: rgb(0, 0, 0); text-rendering: geometricprecision; text-shadow: 0px 0px 6px rgb(255, 255, 255), 0px 0px 3px rgb(255, 255, 255);" y="15"><tspan>Pancakes</tspan></text></g><g  style="cursor:pointer;" transform="translate(107,249)"><text x="5"  style="font-size: 10px; font-weight: bold; font-family: 'arial',sans-serif; color: rgb(0, 0, 0); fill: rgb(0, 0, 0); text-rendering: geometricprecision; text-shadow: 0px 0px 6px rgb(255, 255, 255), 0px 0px 3px rgb(255, 255, 255);" y="15"><tspan>Waffles</tspan></text></g><g  style="cursor:pointer;" transform="translate(85,45)"><text x="5"  style="font-size: 10px; font-weight: bold; font-family: 'arial',sans-serif; color: rgb(0, 0, 0); fill: rgb(0, 0, 0); text-rendering: geometricprecision; text-shadow: 0px 0px 6px rgb(255, 255, 255), 0px 0px 3px rgb(255, 255, 255);" y="15"><tspan>Eggs and Toast</tspan></text></g><g  style="cursor:pointer;" transform="translate(205,1)"><text x="5"  style="font-size: 10px; font-weight: bold; font-family: 'arial',sans-serif; color: rgb(0, 0, 0); fill: rgb(0, 0, 0); text-rendering: geometricprecision; text-shadow: 0px 0px 6px rgb(255, 255, 255), 0px 0px 3px rgb(255, 255, 255);" y="15"><tspan>Option 4</tspan></text></g></g><g class="highcharts-legend"  transform="translate(102,354)"><g ><g><g class="highcharts-legend-item"  transform="translate(8,3)"><text x="21" style="color:#333;font-size:9pt;font-weight:normal;cursor:pointer;font-family:'lucida grande','lucida sans unicode',arial,helvetica,sans-serif;text-transform:none;fill:#333;" text-anchor="start"  y="15">Pancakes</text><rect x="0" y="4" width="16" height="12"  fill="#50B432"></rect></g><g class="highcharts-legend-item"  transform="translate(102.31666564941406,3)"><text x="21" y="15" style="color:#333;font-size:9pt;font-weight:normal;cursor:pointer;font-family:'lucida grande','lucida sans unicode',arial,helvetica,sans-serif;text-transform:none;fill:#333;" text-anchor="start" >Waffles</text><rect x="0" y="4" width="16" height="12"  fill="#ED561B"></rect></g><g class="highcharts-legend-item"  transform="translate(185.31666564941406,3)"><text x="21" y="15" style="color:#333;font-size:9pt;font-weight:normal;cursor:pointer;font-family:'lucida grande','lucida sans unicode',arial,helvetica,sans-serif;text-transform:none;fill:#333;" text-anchor="start" ><tspan>Eggs and Toast</tspan></text><rect x="0" y="4" width="16" height="12"  fill="#DDDF00"></rect></g><g class="highcharts-legend-item"  transform="translate(315.31666564941406,3)"><text x="21" y="15" style="color:#333;font-size:9pt;font-weight:normal;cursor:pointer;font-family:'lucida grande','lucida sans unicode',arial,helvetica,sans-serif;text-transform:none;fill:#333;" text-anchor="start" ><tspan>Option 4</tspan></text><rect x="0" y="4" width="16" height="12"  fill="#24CBE5"></rect></g></g></g></g><g class="highcharts-tooltip"  style="cursor:default;padding:0;pointer-events:none;white-space:nowrap;" transform="translate(0,-9999)"><path fill="none" d="M 3.5 0.5 L 13.5 0.5 C 16.5 0.5 16.5 0.5 16.5 3.5 L 16.5 13.5 C 16.5 16.5 16.5 16.5 13.5 16.5 L 3.5 16.5 C 0.5 16.5 0.5 16.5 0.5 13.5 L 0.5 3.5 C 0.5 0.5 0.5 0.5 3.5 0.5"  stroke="black" stroke-opacity="0.049999999999999996" stroke-width="5" transform="translate(1, 1)"></path><path fill="none" d="M 3.5 0.5 L 13.5 0.5 C 16.5 0.5 16.5 0.5 16.5 3.5 L 16.5 13.5 C 16.5 16.5 16.5 16.5 13.5 16.5 L 3.5 16.5 C 0.5 16.5 0.5 16.5 0.5 13.5 L 0.5 3.5 C 0.5 0.5 0.5 0.5 3.5 0.5"  stroke="black" stroke-opacity="0.09999999999999999" stroke-width="3" transform="translate(1, 1)"></path><path fill="none" d="M 3.5 0.5 L 13.5 0.5 C 16.5 0.5 16.5 0.5 16.5 3.5 L 16.5 13.5 C 16.5 16.5 16.5 16.5 13.5 16.5 L 3.5 16.5 C 0.5 16.5 0.5 16.5 0.5 13.5 L 0.5 3.5 C 0.5 0.5 0.5 0.5 3.5 0.5"  stroke="black" stroke-opacity="0.15" stroke-width="1" transform="translate(1, 1)"></path><path fill="rgb(249, 249, 249)" fill-opacity=" .85" d="M 3.5 0.5 L 13.5 0.5 C 16.5 0.5 16.5 0.5 16.5 3.5 L 16.5 13.5 C 16.5 16.5 16.5 16.5 13.5 16.5 L 3.5 16.5 C 0.5 16.5 0.5 16.5 0.5 13.5 L 0.5 3.5 C 0.5 0.5 0.5 0.5 3.5 0.5"></path><text x="8"  style="font-size:12px;color:#000000;fill:#000000;" y="20"></text></g><text x="590" text-anchor="end"  style="cursor:pointer;color:#909090;font-size:9px;fill:#909090;" y="395">meta-chart.com</text></svg>